<mxfile host="Electron" agent="Mozilla/5.0 (Windows NT 10.0; Win64; x64) AppleWebKit/537.36 (KHTML, like Gecko) draw.io/26.2.2 Chrome/134.0.6998.178 Electron/35.1.2 Safari/537.36" version="26.2.2">
  <diagram name="Página-1" id="K1bFARC51PKLR_bZd6pp">
    <mxGraphModel dx="1428" dy="841" grid="1" gridSize="10" guides="1" tooltips="1" connect="1" arrows="1" fold="1" page="1" pageScale="1" pageWidth="827" pageHeight="1169" math="0" shadow="0">
      <root>
        <mxCell id="0" />
        <mxCell id="1" parent="0" />
        <mxCell id="JciWsBswKhxT2vdmzXe9-74" value="Arquitetura da aplicação - Proposta futura expansões" style="rounded=0;whiteSpace=wrap;html=1;verticalAlign=top;align=center;" parent="1" vertex="1">
          <mxGeometry x="9" y="670" width="810" height="450" as="geometry" />
        </mxCell>
        <mxCell id="JciWsBswKhxT2vdmzXe9-31" value="Arquitetura da aplicação" style="rounded=0;whiteSpace=wrap;html=1;verticalAlign=top;align=center;" parent="1" vertex="1">
          <mxGeometry x="9" y="110" width="810" height="450" as="geometry" />
        </mxCell>
        <mxCell id="JciWsBswKhxT2vdmzXe9-24" value="XPE.SoftwareArch.&lt;div&gt;FinalChallenge.&lt;/div&gt;&lt;div&gt;Infra&lt;/div&gt;" style="rounded=1;whiteSpace=wrap;html=1;fillColor=#d5e8d4;verticalAlign=bottom;strokeColor=#82b366;" parent="1" vertex="1">
          <mxGeometry x="619" y="275" width="150" height="240" as="geometry" />
        </mxCell>
        <mxCell id="JciWsBswKhxT2vdmzXe9-23" value="XPE.SoftwareArch.&lt;div&gt;FinalChallenge.&lt;/div&gt;&lt;div&gt;Domain&lt;/div&gt;" style="rounded=1;whiteSpace=wrap;html=1;fillColor=#fff2cc;verticalAlign=bottom;strokeColor=#d6b656;" parent="1" vertex="1">
          <mxGeometry x="434" y="275" width="150" height="240" as="geometry" />
        </mxCell>
        <mxCell id="JciWsBswKhxT2vdmzXe9-22" value="XPE.SoftwareArch.&lt;br&gt;FinalChallenge.&lt;div&gt;Application&lt;/div&gt;" style="rounded=1;whiteSpace=wrap;html=1;fillColor=#f8cecc;verticalAlign=bottom;strokeColor=#b85450;" parent="1" vertex="1">
          <mxGeometry x="234" y="275" width="150" height="240" as="geometry" />
        </mxCell>
        <mxCell id="JciWsBswKhxT2vdmzXe9-17" value="XPE.SoftwareArch.&lt;div&gt;FinalChallenge.&lt;/div&gt;&lt;div&gt;Api&lt;/div&gt;" style="rounded=1;whiteSpace=wrap;html=1;fillColor=#d5e8d4;verticalAlign=bottom;strokeColor=#82b366;" parent="1" vertex="1">
          <mxGeometry x="49" y="275" width="150" height="240" as="geometry" />
        </mxCell>
        <mxCell id="JciWsBswKhxT2vdmzXe9-8" style="edgeStyle=orthogonalEdgeStyle;rounded=0;orthogonalLoop=1;jettySize=auto;html=1;entryX=0;entryY=0.5;entryDx=0;entryDy=0;flowAnimation=1;" parent="1" source="JciWsBswKhxT2vdmzXe9-3" target="JciWsBswKhxT2vdmzXe9-4" edge="1">
          <mxGeometry relative="1" as="geometry" />
        </mxCell>
        <mxCell id="JciWsBswKhxT2vdmzXe9-3" value="Product&lt;br&gt;API Rest" style="rounded=1;whiteSpace=wrap;html=1;" parent="1" vertex="1">
          <mxGeometry x="69" y="365" width="100" height="60" as="geometry" />
        </mxCell>
        <mxCell id="JciWsBswKhxT2vdmzXe9-4" value="Product&lt;br&gt;UseCase" style="rounded=1;whiteSpace=wrap;html=1;" parent="1" vertex="1">
          <mxGeometry x="259" y="365" width="100" height="60" as="geometry" />
        </mxCell>
        <mxCell id="JciWsBswKhxT2vdmzXe9-9" style="edgeStyle=orthogonalEdgeStyle;rounded=0;orthogonalLoop=1;jettySize=auto;html=1;entryX=1;entryY=0.5;entryDx=0;entryDy=0;flowAnimation=1;" parent="1" source="JciWsBswKhxT2vdmzXe9-5" target="JciWsBswKhxT2vdmzXe9-4" edge="1">
          <mxGeometry relative="1" as="geometry" />
        </mxCell>
        <mxCell id="JciWsBswKhxT2vdmzXe9-10" style="edgeStyle=orthogonalEdgeStyle;rounded=0;orthogonalLoop=1;jettySize=auto;html=1;entryX=0;entryY=0.5;entryDx=0;entryDy=0;flowAnimation=1;" parent="1" source="JciWsBswKhxT2vdmzXe9-5" target="JciWsBswKhxT2vdmzXe9-6" edge="1">
          <mxGeometry relative="1" as="geometry" />
        </mxCell>
        <mxCell id="JciWsBswKhxT2vdmzXe9-5" value="Product&lt;div&gt;Aggregate&lt;/div&gt;" style="rounded=1;whiteSpace=wrap;html=1;" parent="1" vertex="1">
          <mxGeometry x="459" y="365" width="100" height="60" as="geometry" />
        </mxCell>
        <mxCell id="JciWsBswKhxT2vdmzXe9-6" value="Product&lt;br&gt;Data" style="rounded=1;whiteSpace=wrap;html=1;" parent="1" vertex="1">
          <mxGeometry x="649" y="365" width="100" height="60" as="geometry" />
        </mxCell>
        <mxCell id="JciWsBswKhxT2vdmzXe9-12" style="edgeStyle=orthogonalEdgeStyle;rounded=0;orthogonalLoop=1;jettySize=auto;html=1;flowAnimation=1;" parent="1" edge="1">
          <mxGeometry relative="1" as="geometry">
            <mxPoint x="118.5" y="195" as="sourcePoint" />
            <mxPoint x="118.5" y="365" as="targetPoint" />
            <Array as="points">
              <mxPoint x="118.5" y="215" />
              <mxPoint x="118.5" y="215" />
            </Array>
          </mxGeometry>
        </mxCell>
        <mxCell id="JciWsBswKhxT2vdmzXe9-7" value="&lt;span data-end=&quot;595&quot; data-start=&quot;571&quot;&gt;XPE.SoftwareArch.FinalChallenge.Ioc&lt;/span&gt;" style="rounded=1;whiteSpace=wrap;html=1;fillColor=#dae8fc;strokeColor=#6c8ebf;" parent="1" vertex="1">
          <mxGeometry x="49" y="155" width="720" height="90" as="geometry" />
        </mxCell>
        <mxCell id="JciWsBswKhxT2vdmzXe9-13" style="edgeStyle=orthogonalEdgeStyle;rounded=0;orthogonalLoop=1;jettySize=auto;html=1;entryX=0.361;entryY=0.983;entryDx=0;entryDy=0;entryPerimeter=0;flowAnimation=1;" parent="1" source="JciWsBswKhxT2vdmzXe9-4" target="JciWsBswKhxT2vdmzXe9-7" edge="1">
          <mxGeometry relative="1" as="geometry" />
        </mxCell>
        <mxCell id="JciWsBswKhxT2vdmzXe9-14" style="edgeStyle=orthogonalEdgeStyle;rounded=0;orthogonalLoop=1;jettySize=auto;html=1;entryX=0.639;entryY=1;entryDx=0;entryDy=0;entryPerimeter=0;flowAnimation=1;" parent="1" source="JciWsBswKhxT2vdmzXe9-5" target="JciWsBswKhxT2vdmzXe9-7" edge="1">
          <mxGeometry relative="1" as="geometry" />
        </mxCell>
        <mxCell id="JciWsBswKhxT2vdmzXe9-26" style="edgeStyle=orthogonalEdgeStyle;rounded=0;orthogonalLoop=1;jettySize=auto;html=1;entryX=0.904;entryY=0.967;entryDx=0;entryDy=0;entryPerimeter=0;flowAnimation=1;" parent="1" source="JciWsBswKhxT2vdmzXe9-6" target="JciWsBswKhxT2vdmzXe9-7" edge="1">
          <mxGeometry relative="1" as="geometry" />
        </mxCell>
        <mxCell id="JciWsBswKhxT2vdmzXe9-27" value="Desenho de arquitetura" style="text;html=1;align=center;verticalAlign=middle;resizable=0;points=[];autosize=1;strokeColor=none;fillColor=none;fontSize=20;" parent="1" vertex="1">
          <mxGeometry x="20" y="10" width="230" height="40" as="geometry" />
        </mxCell>
        <mxCell id="JciWsBswKhxT2vdmzXe9-32" value="XPE.SoftwareArch.&lt;div&gt;FinalChallenge.&lt;/div&gt;&lt;div&gt;Infra&lt;/div&gt;" style="rounded=1;whiteSpace=wrap;html=1;fillColor=#d5e8d4;verticalAlign=bottom;strokeColor=#82b366;" parent="1" vertex="1">
          <mxGeometry x="611" y="830" width="150" height="255" as="geometry" />
        </mxCell>
        <mxCell id="JciWsBswKhxT2vdmzXe9-33" value="XPE.SoftwareArch.&lt;div&gt;FinalChallenge.&lt;/div&gt;&lt;div&gt;Domain&lt;/div&gt;" style="rounded=1;whiteSpace=wrap;html=1;fillColor=#fff2cc;verticalAlign=bottom;strokeColor=#d6b656;" parent="1" vertex="1">
          <mxGeometry x="429" y="828" width="150" height="255" as="geometry" />
        </mxCell>
        <mxCell id="JciWsBswKhxT2vdmzXe9-34" value="XPE.SoftwareArch.&lt;br&gt;FinalChallenge.&lt;div&gt;Application&lt;/div&gt;" style="rounded=1;whiteSpace=wrap;html=1;fillColor=#f8cecc;verticalAlign=bottom;strokeColor=#b85450;" parent="1" vertex="1">
          <mxGeometry x="244" y="824" width="150" height="260" as="geometry" />
        </mxCell>
        <mxCell id="JciWsBswKhxT2vdmzXe9-67" style="edgeStyle=orthogonalEdgeStyle;rounded=0;orthogonalLoop=1;jettySize=auto;html=1;entryX=0;entryY=0.5;entryDx=0;entryDy=0;flowAnimation=1;" parent="1" source="JciWsBswKhxT2vdmzXe9-35" target="JciWsBswKhxT2vdmzXe9-34" edge="1">
          <mxGeometry relative="1" as="geometry" />
        </mxCell>
        <mxCell id="JciWsBswKhxT2vdmzXe9-35" value="XPE.SoftwareArch.&lt;div&gt;FinalChallenge.&lt;/div&gt;&lt;div&gt;Api&lt;/div&gt;" style="rounded=1;whiteSpace=wrap;html=1;fillColor=#d5e8d4;verticalAlign=bottom;strokeColor=#82b366;" parent="1" vertex="1">
          <mxGeometry x="59" y="823" width="150" height="262" as="geometry" />
        </mxCell>
        <mxCell id="JciWsBswKhxT2vdmzXe9-37" value="API Rest" style="rounded=1;whiteSpace=wrap;html=1;" parent="1" vertex="1">
          <mxGeometry x="79" y="865" width="100" height="60" as="geometry" />
        </mxCell>
        <mxCell id="JciWsBswKhxT2vdmzXe9-38" value="Product&lt;br&gt;UseCase" style="rounded=1;whiteSpace=wrap;html=1;" parent="1" vertex="1">
          <mxGeometry x="269" y="865" width="100" height="60" as="geometry" />
        </mxCell>
        <mxCell id="JciWsBswKhxT2vdmzXe9-61" style="edgeStyle=orthogonalEdgeStyle;rounded=0;orthogonalLoop=1;jettySize=auto;html=1;entryX=1;entryY=0.5;entryDx=0;entryDy=0;flowAnimation=1;" parent="1" source="JciWsBswKhxT2vdmzXe9-41" target="JciWsBswKhxT2vdmzXe9-58" edge="1">
          <mxGeometry relative="1" as="geometry" />
        </mxCell>
        <mxCell id="JciWsBswKhxT2vdmzXe9-63" style="edgeStyle=orthogonalEdgeStyle;rounded=0;orthogonalLoop=1;jettySize=auto;html=1;entryX=0;entryY=0.5;entryDx=0;entryDy=0;flowAnimation=1;" parent="1" source="JciWsBswKhxT2vdmzXe9-41" target="JciWsBswKhxT2vdmzXe9-60" edge="1">
          <mxGeometry relative="1" as="geometry" />
        </mxCell>
        <mxCell id="JciWsBswKhxT2vdmzXe9-41" value="Client&lt;div&gt;Aggregate&lt;/div&gt;" style="rounded=1;whiteSpace=wrap;html=1;" parent="1" vertex="1">
          <mxGeometry x="454" y="959" width="100" height="60" as="geometry" />
        </mxCell>
        <mxCell id="JciWsBswKhxT2vdmzXe9-42" value="Product&lt;br&gt;Data" style="rounded=1;whiteSpace=wrap;html=1;" parent="1" vertex="1">
          <mxGeometry x="636" y="865" width="100" height="60" as="geometry" />
        </mxCell>
        <mxCell id="JciWsBswKhxT2vdmzXe9-73" style="edgeStyle=orthogonalEdgeStyle;rounded=0;orthogonalLoop=1;jettySize=auto;html=1;entryX=0.5;entryY=0;entryDx=0;entryDy=0;flowAnimation=1;" parent="1" source="JciWsBswKhxT2vdmzXe9-44" target="JciWsBswKhxT2vdmzXe9-35" edge="1">
          <mxGeometry relative="1" as="geometry">
            <Array as="points">
              <mxPoint x="134" y="815" />
              <mxPoint x="134" y="815" />
            </Array>
          </mxGeometry>
        </mxCell>
        <mxCell id="JciWsBswKhxT2vdmzXe9-44" value="&lt;span data-end=&quot;595&quot; data-start=&quot;571&quot;&gt;XPE.SoftwareArch.FinalChallenge.Ioc&lt;/span&gt;" style="rounded=1;whiteSpace=wrap;html=1;fillColor=#dae8fc;strokeColor=#6c8ebf;" parent="1" vertex="1">
          <mxGeometry x="59" y="700" width="700" height="90" as="geometry" />
        </mxCell>
        <mxCell id="JciWsBswKhxT2vdmzXe9-48" value="Aplicativo&lt;br&gt;móvel" style="rounded=1;whiteSpace=wrap;html=1;" parent="1" vertex="1">
          <mxGeometry x="79" y="956" width="100" height="60" as="geometry" />
        </mxCell>
        <mxCell id="JciWsBswKhxT2vdmzXe9-58" value="Client&lt;br&gt;UseCase" style="rounded=1;whiteSpace=wrap;html=1;" parent="1" vertex="1">
          <mxGeometry x="269" y="959" width="100" height="60" as="geometry" />
        </mxCell>
        <mxCell id="JciWsBswKhxT2vdmzXe9-64" style="edgeStyle=orthogonalEdgeStyle;rounded=0;orthogonalLoop=1;jettySize=auto;html=1;entryX=0;entryY=0.5;entryDx=0;entryDy=0;flowAnimation=1;" parent="1" source="JciWsBswKhxT2vdmzXe9-59" target="JciWsBswKhxT2vdmzXe9-42" edge="1">
          <mxGeometry relative="1" as="geometry" />
        </mxCell>
        <mxCell id="JciWsBswKhxT2vdmzXe9-65" style="edgeStyle=orthogonalEdgeStyle;rounded=0;orthogonalLoop=1;jettySize=auto;html=1;entryX=1;entryY=0.5;entryDx=0;entryDy=0;flowAnimation=1;" parent="1" source="JciWsBswKhxT2vdmzXe9-59" target="JciWsBswKhxT2vdmzXe9-38" edge="1">
          <mxGeometry relative="1" as="geometry" />
        </mxCell>
        <mxCell id="JciWsBswKhxT2vdmzXe9-59" value="Product&lt;div&gt;Aggregate&lt;/div&gt;" style="rounded=1;whiteSpace=wrap;html=1;" parent="1" vertex="1">
          <mxGeometry x="454" y="865" width="100" height="60" as="geometry" />
        </mxCell>
        <mxCell id="JciWsBswKhxT2vdmzXe9-60" value="Client&lt;br&gt;Data" style="rounded=1;whiteSpace=wrap;html=1;" parent="1" vertex="1">
          <mxGeometry x="635" y="959" width="100" height="60" as="geometry" />
        </mxCell>
        <mxCell id="JciWsBswKhxT2vdmzXe9-68" style="edgeStyle=orthogonalEdgeStyle;rounded=0;orthogonalLoop=1;jettySize=auto;html=1;entryX=0.896;entryY=0.989;entryDx=0;entryDy=0;entryPerimeter=0;flowAnimation=1;" parent="1" source="JciWsBswKhxT2vdmzXe9-32" target="JciWsBswKhxT2vdmzXe9-44" edge="1">
          <mxGeometry relative="1" as="geometry" />
        </mxCell>
        <mxCell id="JciWsBswKhxT2vdmzXe9-69" style="edgeStyle=orthogonalEdgeStyle;rounded=0;orthogonalLoop=1;jettySize=auto;html=1;entryX=0.636;entryY=1.056;entryDx=0;entryDy=0;entryPerimeter=0;flowAnimation=1;" parent="1" source="JciWsBswKhxT2vdmzXe9-33" target="JciWsBswKhxT2vdmzXe9-44" edge="1">
          <mxGeometry relative="1" as="geometry" />
        </mxCell>
        <mxCell id="JciWsBswKhxT2vdmzXe9-72" style="edgeStyle=orthogonalEdgeStyle;rounded=0;orthogonalLoop=1;jettySize=auto;html=1;entryX=0.371;entryY=0.989;entryDx=0;entryDy=0;entryPerimeter=0;flowAnimation=1;" parent="1" source="JciWsBswKhxT2vdmzXe9-34" target="JciWsBswKhxT2vdmzXe9-44" edge="1">
          <mxGeometry relative="1" as="geometry" />
        </mxCell>
      </root>
    </mxGraphModel>
  </diagram>
</mxfile>
